<svg xmlns="http://www.w3.org/2000/svg" viewBox="0 0 200 200" fill="none">
  <!-- Background circle with gradient -->
  <defs>
    <linearGradient id="bgGradient" x1="0%" y1="0%" x2="100%" y2="100%">
      <stop offset="0%" style="stop-color:#f8f1e5;stop-opacity:1" />
      <stop offset="100%" style="stop-color:#e8d5c4;stop-opacity:1" />
    </linearGradient>
    <linearGradient id="pinGradient" x1="0%" y1="0%" x2="0%" y2="100%">
      <stop offset="0%" style="stop-color:#ff9a76;stop-opacity:1" />
      <stop offset="100%" style="stop-color:#f87171;stop-opacity:1" />
    </linearGradient>
    <filter id="shadow">
      <feDropShadow dx="0" dy="4" stdDeviation="6" flood-opacity="0.15"/>
    </filter>
  </defs>
  
  <!-- Background -->
  <rect width="200" height="200" rx="45" fill="url(#bgGradient)"/>
  
  <!-- Map pin shape -->
  <g filter="url(#shadow)">
    <!-- Main pin body -->
    <path d="M 100 50 C 78 50 60 68 60 90 C 60 105 100 145 100 145 C 100 145 140 105 140 90 C 140 68 122 50 100 50 Z" 
          fill="url(#pinGradient)" 
          stroke="#ffffff" 
          stroke-width="3"/>
    
    <!-- Heart in the center of pin -->
    <path d="M 100 76 C 98 74 95 73 92 74 C 88 75 86 79 86 83 C 86 87 88 90 92 94 L 100 101 L 108 94 C 112 90 114 87 114 83 C 114 79 112 75 108 74 C 105 73 102 74 100 76 Z" 
          fill="#ffffff" 
          opacity="0.95"/>
  </g>
  
  <!-- Decorative dots (journey path) -->
  <circle cx="70" cy="125" r="4" fill="#d4a574" opacity="0.6"/>
  <circle cx="85" cy="135" r="3" fill="#d4a574" opacity="0.5"/>
  <circle cx="115" cy="135" r="3" fill="#d4a574" opacity="0.5"/>
  <circle cx="130" cy="125" r="4" fill="#d4a574" opacity="0.6"/>
  
  <!-- Connection lines (subtle) -->
  <path d="M 70 125 Q 77 130 85 135" stroke="#d4a574" stroke-width="2" fill="none" opacity="0.3" stroke-linecap="round"/>
  <path d="M 115 135 Q 122 130 130 125" stroke="#d4a574" stroke-width="2" fill="none" opacity="0.3" stroke-linecap="round"/>
</svg>

