<svg xmlns="http://www.w3.org/2000/svg" viewBox="0 0 100 100" fill="none">
  <defs>
    <linearGradient id="gradient" x1="0%" y1="0%" x2="100%" y2="100%">
      <stop offset="0%" style="stop-color:#ff9a76;stop-opacity:1" />
      <stop offset="50%" style="stop-color:#ff8566;stop-opacity:1" />
      <stop offset="100%" style="stop-color:#f87171;stop-opacity:1" />
    </linearGradient>
    <filter id="glow">
      <feGaussianBlur stdDeviation="2" result="coloredBlur"/>
      <feMerge>
        <feMergeNode in="coloredBlur"/>
        <feMergeNode in="SourceGraphic"/>
      </feMerge>
    </filter>
  </defs>
  
  <!-- Map pin with rounded design -->
  <g filter="url(#glow)">
    <path d="M 50 10 
             C 30 10 14 26 14 46 
             C 14 60 30 80 45 95 
             C 47 97 48 98 50 98 
             C 52 98 53 97 55 95 
             C 70 80 86 60 86 46 
             C 86 26 70 10 50 10 Z" 
          fill="url(#gradient)"/>
    
    <!-- Inner circle with heart -->
    <circle cx="50" cy="43" r="18" fill="#ffffff" opacity="0.3"/>
    
    <!-- Heart shape -->
    <path d="M 50 38 
             C 48 36 45 35.5 43 36 
             C 40 37 38 40 38 43.5 
             C 38 47 40 49.5 44 53 
             L 50 58 
             L 56 53 
             C 60 49.5 62 47 62 43.5 
             C 62 40 60 37 57 36 
             C 55 35.5 52 36 50 38 Z" 
          fill="#ffffff" 
          opacity="0.95"/>
    
    <!-- Small shine effect -->
    <ellipse cx="40" cy="30" rx="8" ry="12" fill="#ffffff" opacity="0.3"/>
  </g>
</svg>

